<svg xmlns="http://www.w3.org/2000/svg" viewBox="0 0 328.33 136.8"><defs><style>.cls-1{fill:#cecece;}</style></defs><title>Ativo 1</title><g id="Camada_2" data-name="Camada 2"><g id="Camada_1-2" data-name="Camada 1"><path class="cls-1" d="M300.35,99.5H282.81c3.53-7.21,5.29-16.51,5.29-28,0-36.21-26.08-67-27.19-68.27a9.33,9.33,0,0,0-16.2,4.12c-3.16,14.7-11.2,23.34-19,31.69-8.69,9.34-17.67,19-17.67,34.94,0,10.63,2.21,19,5.85,25.5h-15c3.53-7.21,5.29-16.51,5.29-28,0-36.2-26.08-67-27.19-68.26a9.33,9.33,0,0,0-16.2,4.12c-3.16,14.69-11.2,23.34-19,31.69-8.69,9.34-17.67,19-17.67,34.94,0,10.63,2.21,19,5.85,25.5H115c3.53-7.21,5.29-16.51,5.29-28,0-36.2-26.08-67-27.19-68.26a9.33,9.33,0,0,0-16.2,4.12c-3.16,14.69-11.2,23.33-19,31.69-8.69,9.33-17.67,19-17.67,34.94,0,10.63,2.21,19,5.85,25.49H28a28,28,0,0,0-28,28,9.33,9.33,0,0,0,18.66,0A9.33,9.33,0,0,1,28,118.15H300.35a9.33,9.33,0,0,1,9.32,9.33,9.33,9.33,0,0,0,18.66,0A28,28,0,0,0,300.35,99.5Zm-220.1,0c-14.18,0-21.36-8.58-21.36-25.5,0-8.21,4.58-13.53,12.67-22.23,5.55-6,12-12.88,17-22.33C94.73,40,101.6,55.37,101.6,71.52,101.61,99.5,89.76,99.5,80.25,99.5Zm83.92,0c-14.18,0-21.36-8.58-21.36-25.5,0-8.21,4.58-13.53,12.67-22.23,5.55-6,12-12.88,17-22.33,6.19,10.55,13.06,25.93,13.06,42.08C185.52,99.5,173.68,99.5,164.17,99.5Zm83.91,0c-14.17,0-21.35-8.58-21.35-25.5,0-8.21,4.57-13.53,12.67-22.23,5.55-6,12-12.88,17-22.34,6.19,10.56,13.06,25.94,13.06,42.09C269.44,99.5,257.6,99.5,248.08,99.5Z"/></g></g></svg>