<svg xmlns="http://www.w3.org/2000/svg" viewBox="0 0 379 58.95"><defs><style>.cls-1{fill:#cecece;}.cls-2{fill:none;stroke:#cecece;stroke-miterlimit:10;stroke-width:6px;}</style></defs><title>Ativo 1</title><g id="Camada_2" data-name="Camada 2"><g id="Camada_1-2" data-name="Camada 1"><path class="cls-1" d="M317.12,0H295.83c-4.14,0-7.5,2.35-7.5,5.26s3.36,5.26,7.5,5.26h18.84V20.93c0,15.16-17.59,27.5-39.2,27.5h-109a10.18,10.18,0,0,0-1.67.13,10,10,0,0,0-1.66-.13H54.2C32.58,48.43,15,36.09,15,20.93V10.52H33.83c4.14,0,7.5-2.35,7.5-5.26S38,0,33.83,0H12.55C5.63,0,0,4,0,8.8V20.93c0,21,24.31,38,54.2,38h109a10,10,0,0,0,1.66-.14,10.17,10.17,0,0,0,1.67.14h109c29.88,0,54.2-17.06,54.2-38V8.8C329.67,4,324,0,317.12,0Z"/><path class="cls-2" d="M315.3,18h55.43c2.56,0,4.82,3.4,5.2,8.11,0,.21,0,.43.05.65.29,5.64-2.22,10.46-5.28,10.46H313"/></g></g></svg>