<svg xmlns="http://www.w3.org/2000/svg" viewBox="0 0 100.88 134.75"><defs><style>.cls-1{fill:#b7b7b7;}</style></defs><title>Ativo 2</title><g id="Camada_2" data-name="Camada 2"><g id="Camada_1-2" data-name="Camada 1"><path class="cls-1" d="M50.46,35.77a18.28,18.28,0,0,1-3.84-11.48A18.32,18.32,0,0,1,50.46,12.8a8.82,8.82,0,0,0,0-10.6,5.26,5.26,0,0,0-8.55,0,35.15,35.15,0,0,0-7.39,22.09,35.15,35.15,0,0,0,7.39,22.09l7.67,9.51a19.14,19.14,0,0,1,0,23l-7.67,9.51a36.71,36.71,0,0,0,0,44.18,5.25,5.25,0,0,0,8.55,0,8.84,8.84,0,0,0,0-10.61,19.1,19.1,0,0,1,0-23l7.67-9.5a35.19,35.19,0,0,0,7.38-22.1,35.16,35.16,0,0,0-7.38-22.09Z"/><path class="cls-1" d="M93.5,89.47a35.19,35.19,0,0,0,7.38-22.1A35.16,35.16,0,0,0,93.5,45.28a5.27,5.27,0,0,0-8.56,0,8.84,8.84,0,0,0,0,10.61,19.1,19.1,0,0,1,0,23l-7.66,9.51a36.71,36.71,0,0,0,0,44.18,5.25,5.25,0,0,0,8.55,0,8.84,8.84,0,0,0,0-10.61,19.1,19.1,0,0,1,0-23Z"/><path class="cls-1" d="M15.05,45.28a8.84,8.84,0,0,0,0,10.61,18.22,18.22,0,0,1,3.84,11.48,18.26,18.26,0,0,1-3.84,11.49L7.38,88.37a36.75,36.75,0,0,0,0,44.18,5.52,5.52,0,0,0,4.28,2.2,5.52,5.52,0,0,0,4.28-2.2,8.84,8.84,0,0,0,0-10.61,19.1,19.1,0,0,1,0-23l7.67-9.5A35.19,35.19,0,0,0,31,67.37a35.16,35.16,0,0,0-7.38-22.09A5.27,5.27,0,0,0,15.05,45.28Z"/></g></g></svg>